#!OML:ASF E:\emotionWalksFemale\Project 1\Capture day 1\Session 1\Female1.ASF
:FULLY-SPECIFIED
:DEGREES
1932
root 11.2594 13.7071 -20.0934 355.559 -4.91422 -0.0270044
lowerback 10.3499 4.80502 1.95692
upperback -0.890849 6.57996 -1.05937
thorax -6.37684 3.1427 -3.21887
lowerneck -7.22849 -4.69564 -6.409
upperneck 10.9675 -5.81842 2.10918
head 4.72833 -2.99712 1.3184
rclavicle 5.62374e-014 -1.11319e-014
rhumerus 5.51469 -0.685841 -60.8087
rradius 31.078
rwrist 20.7341
rhand 2.19041 -60.5667
rfingers 7.12502
rthumb 27.6867 1351.45
lclavicle 5.62374e-014 -1.11319e-014
lhumerus -67.3149 28.7936 5.99831
lradius 31.0696
lwrist -18.243
lhand 29.3631 -29.6884
lfingers 7.12502
lthumb 53.1335 -10.2809
rfemur -5.52619 0.317303 36.6666
rtibia 59.0789
rfoot -32.2524 -20.7989
rtoes 9.65899
lfemur -49.0366 -12.7362 -20.3883
ltibia 49.3362
lfoot -13.8732 -6.79006
ltoes -38.1118
1933
root 11.2529 13.7016 -19.9727 355.387 -4.77716 -0.0299361
lowerback 10.2512 4.95822 2.35701
upperback -0.800933 6.83427 -1.01082
thorax -6.16972 3.26228 -3.40676
lowerneck -7.36866 -4.81702 -6.70672
upperneck 11.0721 -5.92882 2.04413
head 4.79679 -3.06702 1.33322
rclavicle -3.11595e-014 -9.34288e-015
rhumerus 6.94424 0.403739 -60.1573
rradius 31.7738
rwrist 19.566
rhand 0.337259 -60.4929
rfingers 7.12502
rthumb 25.9134 1351.25
lclavicle -3.11595e-014 -9.34288e-015
lhumerus -66.0902 28.4487 5.30938
lradius 32.2516
lwrist -14.1317
lhand 22.8508 -28.883
lfingers 7.12502
lthumb 47.181 -6.29688
rfemur -4.68045 -0.255164 36.5475
rtibia 58.8262
rfoot -32.0203 -20.5727
rtoes 9.42766
lfemur -48.0007 -12.9025 -20.8818
ltibia 45.657
lfoot -13.1447 -8.01471
ltoes -35.9428
1934
root 11.2453 13.7 -19.8518 355.292 -4.51927 0.0363982
lowerback 10.1434 5.09394 2.68908
upperback -0.765507 7.05273 -1.01942
thorax -6.01592 3.36443 -3.61272
lowerneck -7.49945 -5.04041 -7.00352
upperneck 11.3725 -6.18262 2.01538
head 4.93224 -3.20749 1.34633
rclavicle -9.51682e-015 1.19271e-015
rhumerus 8.78418 -0.283767 -60.2072
rradius 31.7392
rwrist 20.5068
rhand -1.6658 -59.776
rfingers 7.12502
rthumb 23.9939 1351.7
lclavicle -9.51682e-015 1.19271e-015
lhumerus -64.6023 27.9686 4.9851
lradius 33.5628
lwrist -9.8147
lhand 15.6071 -28.1779
lfingers 7.12502
lthumb 40.4228 -3.08085
rfemur -3.94669 -0.896967 36.3397
rtibia 58.5701
rfoot -31.8457 -20.507
rtoes 8.70357
lfemur -46.9329 -13.0027 -21.5832
ltibia 42.1396
lfoot -13.2342 -8.98362
ltoes -37.8115
1935
root 11.2363 13.6926 -19.7306 355.168 -4.16765 0.174269
lowerback 10.0749 5.22448 2.95367
upperback -0.800885 7.25406 -1.08771
thorax -5.95859 3.45595 -3.84941
lowerneck -7.30876 -5.18031 -7.25677
upperneck 11.5513 -6.3705 2.12991
head 4.97676 -3.30661 1.41065
rclavicle 1.41261e-014 -1.09332e-014
rhumerus 10.491 -1.46811 -60.6314
rradius 31.7642
rwrist 22.1625
rhand -3.24715 -59.7376
rfingers 7.12502
rthumb 22.4768 1351.55
lclavicle 1.41261e-014 -1.09332e-014
lhumerus -62.9608 27.4135 4.74949
lradius 34.9792
lwrist -5.82687
lhand 7.94068 -27.6807
lfingers 7.12502
lthumb 33.1706 -0.716687
rfemur -3.21751 -1.63755 36.0242
rtibia 58.3384
rfoot -31.9315 -20.3687
rtoes 8.30611
lfemur -45.7567 -12.9386 -22.5362
ltibia 38.875
lfoot -13.1223 -9.95358
ltoes -40.2047
1936
root 11.2249 13.6761 -19.6046 355 -3.82317 0.309503
lowerback 9.98397 5.3496 3.20495
upperback -0.864918 7.4455 -1.1692
thorax -5.91751 3.54215 -4.0898
lowerneck -6.88612 -5.32345 -7.52275
upperneck 11.7308 -6.58707 2.29118
head 4.98664 -3.41966 1.49552
rclavicle 3.63652e-014 -8.15017e-015
rhumerus 12.0098 -2.24526 -60.9962
rradius 31.8854
rwrist 23.2648
rhand -4.18394 -59.047
rfingers 7.12502
rthumb 21.5773 1352.14
lclavicle 3.63652e-014 -8.15017e-015
lhumerus -61.3909 26.7746 4.42498
lradius 36.5197
lwrist -2.36003
lhand 1.4023 -28.3251
lfingers 7.12502
lthumb 26.9328 -0.224366
rfemur -2.42824 -2.44097 35.6554
rtibia 58.1463
rfoot -32.199 -20.0192
rtoes 8.19913
lfemur -44.5442 -12.8703 -23.4605
ltibia 35.9157
lfoot -11.8251 -11.662
ltoes -36.4585
1937
root 11.2115 13.6599 -19.4728 354.782 -3.4057 0.340462
lowerback 9.93016 5.42762 3.48259
upperback -0.856302 7.58079 -1.1801
thorax -5.82965 3.60349 -4.26215
lowerneck -7.04567 -5.41912 -7.61441
upperneck 11.9871 -6.68855 2.24384
head 5.10001 -3.47768 1.48046
rclavicle 3.72845e-014 -9.54166e-015
rhumerus 13.4986 -2.47121 -61.1267
rradius 32.2976
rwrist 23.325
rhand -5.03803 -58.1059
rfingers 7.12502
rthumb 20.7569 1352.98
lclavicle 3.72845e-014 -9.54166e-015
lhumerus -60.0193 26.5293 3.80638
lradius 38.0349
lwrist -0.187693
lhand -4.84384 -29.2842
lfingers 7.12502
lthumb 20.9434 -0.394907
rfemur -1.52424 -3.35563 35.3629
rtibia 57.9374
rfoot -32.3959 -19.6087
rtoes 8.0022
lfemur -43.2867 -12.9461 -24.2225
ltibia 33.2998
lfoot -10.4425 -13.2475
ltoes -31.4614
1938
root 11.1992 13.6454 -19.3378 354.47 -2.9055 0.356878
lowerback 9.92455 5.46548 3.70412
upperback -0.752039 7.65861 -1.12676
thorax -5.68796 3.64269 -4.32814
lowerneck -7.30633 -5.64792 -7.74936
upperneck 12.3817 -6.94197 2.08505
head 5.27958 -3.61983 1.42089
rclavicle 2.086e-014 6.95746e-015
rhumerus 14.9446 -2.35821 -61.029
rradius 32.9414
rwrist 22.8756
rhand -5.43006 -57.0408
rfingers 7.12502
rthumb 20.3802 1354.01
lclavicle 2.086e-014 6.95746e-015
lhumerus -58.8146 26.7106 3.06982
lradius 39.5593
lwrist 0.509995
lhand -11.3702 -29.6714
lfingers 7.12502
lthumb 14.6639 -0.20996
rfemur -0.459398 -4.3621 35.0425
rtibia 57.6662
rfoot -32.3416 -19.1858
rtoes 7.5965
lfemur -41.9248 -13.1537 -24.9367
ltibia 31.0658
lfoot -9.81493 -14.2041
ltoes -30.4462
1939
root 11.1875 13.6338 -19.2005 354.085 -2.49374 0.421585
lowerback 9.84311 5.5424 3.87979
upperback -0.662988 7.78021 -1.07365
thorax -5.52121 3.70617 -4.36647
lowerneck -7.34601 -5.80674 -7.89965
upperneck 12.7955 -7.1196 1.95537
head 5.42616 -3.72635 1.38372
rclavicle 3.46631e-015 -1.11319e-014
rhumerus 16.328 -2.03305 -60.8602
rradius 33.2246
rwrist 22.2923
rhand -5.42363 -55.9605
rfingers 7.12502
rthumb 20.3863 1355.09
lclavicle 3.46631e-015 -1.11319e-014
lhumerus -57.5706 26.7804 2.43902
lradius 41.0899
lwrist 0.0362449
lhand -16.8083 -30.0903
lfingers 7.12502
lthumb 9.42029 -0.320783
rfemur 0.714754 -5.33847 34.6022
rtibia 57.3231
rfoot -32.0616 -18.7346
rtoes 6.86528
lfemur -40.5265 -13.5118 -25.5019
ltibia 29.2316
lfoot -8.63443 -15.0064
ltoes -25.807
1940
root 11.1748 13.6248 -19.0605 353.704 -2.05998 0.386518
lowerback 9.69049 5.61152 4.12922
upperback -0.631324 7.89945 -0.994197
thorax -5.36908 3.76567 -4.41232
lowerneck -7.15972 -5.93137 -8.11666
upperneck 13.2938 -7.27514 1.921
head 5.56644 -3.82241 1.39358
rclavicle -6.40335e-014 1.39149e-015
rhumerus 17.6592 -1.369 -60.5951
rradius 33.1636
rwrist 21.3322
rhand -5.49449 -56.2016
rfingers 7.12502
rthumb 20.3182 1354.84
lclavicle -6.40335e-014 1.39149e-015
lhumerus -56.2243 26.7482 1.88937
lradius 42.4789
lwrist -1.25277
lhand -20.6456 -31.1674
lfingers 7.12502
lthumb 5.71655 -1.2645
rfemur 1.9058 -6.36676 34.2224
rtibia 56.9327
rfoot -31.8378 -18.1522
rtoes 6.83251
lfemur -39.1213 -14.0964 -25.7805
ltibia 27.7524
lfoot -7.15969 -15.4919
ltoes -19.8535
1941
root 11.1618 13.6119 -18.9201 353.314 -1.51258 0.29398
lowerback 9.64613 5.62968 4.37406
upperback -0.625713 7.9565 -0.878813
thorax -5.31669 3.79049 -4.42615
lowerneck -6.90408 -6.06504 -8.32153
upperneck 13.666 -7.4497 1.88211
head 5.65638 -3.92687 1.40215
rclavicle 4.21423e-014 1.37161e-014
rhumerus 19.0238 -0.533919 -60.2229
rradius 32.9317
rwrist 20.4796
rhand -5.16528 -56.4698
rfingers 7.12502
rthumb 20.6346 1354.61
lclavicle 4.21423e-014 1.37161e-014
lhumerus -54.8515 26.6833 1.47796
lradius 43.8052
lwrist -2.45825
lhand -23.1163 -32.6515
lfingers 7.12502
lthumb 3.33079 -2.69782
rfemur 3.12174 -7.5357 33.8579
rtibia 56.5148
rfoot -31.6786 -17.51
rtoes 7.35542
lfemur -37.7148 -14.8868 -25.9262
ltibia 26.6583
lfoot -7.50559 -15.191
ltoes -24.8763
1942
root 11.1502 13.5951 -18.7782 352.981 -0.981485 0.395704
lowerback 9.5463 5.65611 4.41045
upperback -0.622554 7.99615 -0.794187
thorax -5.26081 3.81255 -4.35033
lowerneck -6.62977 -6.19544 -8.63922
upperneck 13.9012 -7.61321 1.88201
head 5.70634 -4.02769 1.4436
rclavicle -2.82026e-015 5.96354e-015
rhumerus 20.3968 0.451375 -59.768
rradius 32.6085
rwrist 19.7395
rhand -4.54843 -55.9944
rfingers 7.12502
rthumb 21.2272 1355.15
lclavicle -2.82026e-015 5.96354e-015
lhumerus -53.5059 26.4246 1.29018
lradius 45.1256
lwrist -3.37881
lhand -24.7299 -33.3619
lfingers 7.12502
lthumb 1.77243 -3.3895
rfemur 4.30704 -8.76406 33.1927
rtibia 56.0455
rfoot -31.4616 -16.8394
rtoes 7.59305
lfemur -36.551 -15.7649 -26.208
ltibia 26.0889
lfoot -6.84752 -14.4733
ltoes -26.9135
1943
root 11.1405 13.5819 -18.63 352.621 -0.558937 0.361894
lowerback 9.43996 5.66618 4.6154
upperback -0.660945 8.03532 -0.681295
thorax -5.22675 3.82833 -4.33873
lowerneck -6.40217 -6.32651 -8.89899
upperneck 14.3352 -7.76414 1.75669
head 5.8199 -4.1309 1.43367
rclavicle 1.39951e-013 1.17283e-014
rhumerus 21.6708 1.72481 -59.2961
rradius 32.2182
rwrist 18.8728
rhand -3.36976 -55.927
rfingers 7.12502
rthumb 22.3591 1355.35
lclavicle 1.39951e-013 1.17283e-014
lhumerus -52.1199 25.7265 1.40192
lradius 46.3462
lwrist -3.92021
lhand -25.9629 -32.9096
lfingers 7.12502
lthumb 0.581569 -2.93064
rfemur 5.58011 -9.92332 32.6234
rtibia 55.4829
rfoot -31.1669 -16.1793
rtoes 7.51731
lfemur -35.6506 -16.6178 -26.2859
ltibia 26.0588
lfoot -5.09895 -13.6341
ltoes -23.5414
1944
root 11.132 13.5809 -18.4777 352.123 -0.227102 0.0652463
lowerback 9.38866 5.66007 5.12605
upperback -0.670605 8.091 -0.522213
thorax -5.15702 3.84611 -4.45061
lowerneck -6.26209 -6.49552 -8.94476
upperneck 14.9471 -7.95622 1.44434
head 5.99082 -4.25846 1.32274
rclavicle 9.87028e-014 2.68359e-015
rhumerus 22.8589 3.00728 -58.8947
rradius 31.7936
rwrist 18.4012
rhand -1.69524 -56.4614
rfingers 7.12502
rthumb 23.9657 1355.01
lclavicle 9.87028e-014 2.68359e-015
lhumerus -50.6526 24.8554 1.74606
lradius 47.4107
lwrist -3.99316
lhand -26.6812 -32.2797
lfingers 7.12502
lthumb -0.112148 -2.29997
rfemur 7.08732 -10.9908 32.308
rtibia 54.8332
rfoot -30.7184 -15.5295
rtoes 7.15355
lfemur -34.8418 -17.214 -26.1658
ltibia 26.4791
lfoot -3.45011 -12.176
ltoes -24.9006
1945
root 11.1248 13.5832 -18.3284 351.802 0.14627 0.0566828
lowerback 9.11056 5.69024 5.36814
upperback -0.67678 8.14534 -0.4686
thorax -4.97688 3.87521 -4.49752
lowerneck -5.93322 -6.61161 -9.15494
upperneck 15.3409 -8.11637 1.40984
head 6.07699 -4.35863 1.33632
rclavicle -7.99363e-014 2.65378e-014
rhumerus 24.1269 3.8881 -58.75
rradius 31.0096
rwrist 18.7203
rhand -0.93238 -56.5735
rfingers 7.12502
rthumb 24.697 1355
lclavicle -7.99363e-014 2.65378e-014
lhumerus -49.1911 23.9307 2.20801
lradius 48.3759
lwrist -3.72653
lhand -26.5533 -32.1801
lfingers 7.12502
lthumb 0.0113065 -2.20037
rfemur 8.44119 -11.974 31.6722
rtibia 54.2172
rfoot -30.2731 -14.6345
rtoes 7.12471
lfemur -34.4117 -17.3106 -26.5582
ltibia 27.3272
lfoot -1.97585 -11.4852
ltoes -24.0211
